<?xml version="1.0" encoding="UTF-8"?>
<svg xmlns="http://www.w3.org/2000/svg" width="100" height="100" viewBox="0 0 100 100" fill="none">
  <!-- Robot head -->
  <rect x="20" y="15" width="60" height="60" rx="10" fill="#4F46E5" />
  
  <!-- Robot eyes -->
  <circle cx="35" cy="40" r="7" fill="#FFFFFF" />
  <circle cx="65" cy="40" r="7" fill="#FFFFFF" />
  
  <!-- Robot pupils -->
  <circle cx="35" cy="40" r="3" fill="#111827" />
  <circle cx="65" cy="40" r="3" fill="#111827" />
  
  <!-- Robot antenna -->
  <rect x="45" y="5" width="10" height="15" rx="5" fill="#4F46E5" />
  <circle cx="50" cy="5" r="5" fill="#6366F1" />
  
  <!-- Robot mouth/speaker - chat bubble -->
  <path d="M35 55 H65 C70 55 70 65 65 65 H55 L45 75 V65 H35 C30 65 30 55 35 55Z" fill="#6366F1" />
  
  <!-- Chat lines -->
  <line x1="40" y1="60" x2="60" y2="60" stroke="#FFFFFF" strokeWidth="2" />
  <line x1="40" y1="60" x2="60" y2="60" stroke="#FFFFFF" strokeWidth="2" />
  
  <!-- Neck/bottom -->
  <rect x="40" y="75" width="20" height="10" fill="#4F46E5" />
  
  <!-- Robot body hint -->
  <path d="M30 85 H70 C75 85 75 95 70 95 H30 C25 95 25 85 30 85Z" fill="#4F46E5" opacity="0.6" />
</svg>