<svg width="133" height="36" viewBox="0 0 133 36" fill="none" xmlns="http://www.w3.org/2000/svg">
<path d="M4.56498 35.5L4.59706 34.7729C4.70533 32.3007 6.10683 31.3831 11.9695 31.3811L11.9514 30.0272C11.9384 29.0473 11.8973 28.6512 11.8041 28.593C11.7329 28.5489 9.92839 28.5328 7.79405 28.5569C2.8918 28.6111 2.52187 28.5258 1.15546 27.0335C-0.00243534 25.7708 -0.0204803 25.6194 0.00558484 17.4979C0.02764 10.5899 0.0226274 10.635 0.89982 9.4436C2.18704 7.69454 2.4918 7.62032 8.71736 7.54711C12.7976 7.49998 13.7369 7.46387 13.8051 7.35155C13.8512 7.27633 13.8883 6.69063 13.8883 6.05078C13.8883 4.88641 13.8883 4.88641 13.4281 4.44213C11.5404 2.61785 13.5996 -0.383838 15.9625 0.748438C17.4492 1.4615 17.7179 3.20755 16.5389 4.5013C16.0938 4.99071 16.0938 4.99071 16.0938 7.48694L21.2216 7.54711C27.2346 7.61731 27.1885 7.60929 28.4427 8.72552C29.9625 10.0774 30.0918 11.1415 29.9615 21.2086C29.9013 25.8601 29.7409 26.4649 28.2702 27.5891C27.0973 28.4847 26.991 28.5017 22.2492 28.5268C19.9835 28.5389 18.0998 28.579 18.0637 28.6151C17.9444 28.7344 17.9895 31.1815 18.1148 31.2838C18.179 31.338 19.1695 31.3801 20.3775 31.3821C22.4727 31.3841 22.5419 31.3901 23.1945 31.6529C24.4276 32.1493 25.2968 33.4059 25.4171 35.5H4.56498ZM11.0562 23.2485C10.8407 23.4291 10.8276 23.8884 11.0311 24.106C11.1645 24.2484 11.6196 24.2675 14.958 24.2675C18.3314 24.2675 18.7544 24.2494 18.9179 24.102C19.1464 23.8944 19.1554 23.4351 18.9359 23.2516C18.6803 23.0399 11.3078 23.0359 11.0562 23.2485ZM4.46122 16.8473C4.46122 17.8826 4.87234 18.8756 5.60414 19.6077C6.33593 20.3397 7.32846 20.751 8.36337 20.751C9.39829 20.751 10.3908 20.3397 11.1226 19.6077C11.8544 18.8756 12.2655 17.8826 12.2655 16.8473C12.2655 15.812 11.8544 14.8191 11.1226 14.087C10.3908 13.3549 9.39829 12.9436 8.36337 12.9436C7.32846 12.9436 6.33593 13.3549 5.60414 14.087C4.87234 14.8191 4.46122 15.812 4.46122 16.8473ZM17.7013 16.8427C17.7013 17.8762 18.1117 18.8674 18.8422 19.5983C19.5728 20.3291 20.5636 20.7396 21.5967 20.7396C22.6298 20.7396 23.6206 20.3291 24.3512 19.5983C25.0817 18.8674 25.4921 17.8762 25.4921 16.8427C25.4921 15.8092 25.0817 14.818 24.3512 14.0872C23.6206 13.3564 22.6298 12.9458 21.5967 12.9458C20.5636 12.9458 19.5728 13.3564 18.8422 14.0872C18.1117 14.818 17.7013 15.8092 17.7013 16.8427Z" fill="#2563EB"/>
<path d="M17.7009 16.843C17.7009 15.8095 18.1113 14.8183 18.8418 14.0875C19.5724 13.3567 20.5632 12.9461 21.5963 12.9461C22.6294 12.9461 23.6202 13.3567 24.3507 14.0875C25.0813 14.8183 25.4917 15.8095 25.4917 16.843C25.4917 17.8765 25.0813 18.8677 24.3507 19.5986C23.6202 20.3294 22.6294 20.7399 21.5963 20.7399C20.5632 20.7399 19.5724 20.3294 18.8418 19.5986C18.1113 18.8677 17.7009 17.8765 17.7009 16.843ZM19.6161 16.8481C19.6161 17.3744 19.8251 17.8792 20.1971 18.2514C20.5691 18.6235 21.0737 18.8326 21.5998 18.8326C22.1259 18.8326 22.6305 18.6235 23.0025 18.2514C23.3745 17.8792 23.5835 17.3744 23.5835 16.8481C23.5835 16.3218 23.3745 15.817 23.0025 15.4449C22.6305 15.0727 22.1259 14.8636 21.5998 14.8636C21.0737 14.8636 20.5691 15.0727 20.1971 15.4449C19.8251 15.817 19.6161 16.3218 19.6161 16.8481Z" fill="white"/>
<path d="M19.6166 16.848C19.6166 16.3217 19.8256 15.8169 20.1976 15.4448C20.5696 15.0726 21.0742 14.8635 21.6003 14.8635C22.1264 14.8635 22.631 15.0726 23.003 15.4448C23.375 15.8169 23.584 16.3217 23.584 16.848C23.584 17.3743 23.375 17.8791 23.003 18.2513C22.631 18.6234 22.1264 18.8325 21.6003 18.8325C21.0742 18.8325 20.5696 18.6234 20.1976 18.2513C19.8256 17.8791 19.6166 17.3743 19.6166 16.848Z" fill="#2563EB"/>
<path d="M4.46138 16.847C4.46138 15.8117 4.8725 14.8188 5.6043 14.0867C6.33609 13.3546 7.32862 12.9433 8.36353 12.9433C9.39845 12.9433 10.391 13.3546 11.1228 14.0867C11.8546 14.8188 12.2657 15.8117 12.2657 16.847C12.2657 17.8823 11.8546 18.8753 11.1228 19.6074C10.391 20.3394 9.39845 20.7507 8.36353 20.7507C7.32862 20.7507 6.33609 20.3394 5.6043 19.6074C4.8725 18.8753 4.46138 17.8823 4.46138 16.847ZM6.39632 16.8595C6.39632 17.3814 6.60358 17.882 6.9725 18.251C7.34143 18.6201 7.8418 18.8275 8.36353 18.8275C8.88527 18.8275 9.38564 18.6201 9.75457 18.251C10.1235 17.882 10.3308 17.3814 10.3308 16.8595C10.3308 16.3375 10.1235 15.8369 9.75457 15.4679C9.38564 15.0988 8.88527 14.8915 8.36353 14.8915C7.8418 14.8915 7.34143 15.0988 6.9725 15.4679C6.60358 15.8369 6.39632 16.3375 6.39632 16.8595Z" fill="white"/>
<path d="M6.39626 16.8601C6.39626 16.3381 6.60352 15.8376 6.97244 15.4685C7.34137 15.0994 7.84173 14.8921 8.36347 14.8921C8.88521 14.8921 9.38558 15.0994 9.75451 15.4685C10.1234 15.8376 10.3307 16.3381 10.3307 16.8601C10.3307 17.382 10.1234 17.8826 9.75451 18.2516C9.38558 18.6207 8.88521 18.8281 8.36347 18.8281C7.84173 18.8281 7.34137 18.6207 6.97244 18.2516C6.60352 17.8826 6.39626 17.382 6.39626 16.8601Z" fill="#2563EB"/>
<path d="M11.0563 23.2485C11.3079 23.0359 18.6804 23.0399 18.936 23.2516C19.1556 23.4351 19.1465 23.8944 18.918 24.102C18.7546 24.2494 18.3315 24.2675 14.9581 24.2675C11.6197 24.2675 11.1646 24.2484 11.0313 24.106C10.8277 23.8884 10.8408 23.4291 11.0563 23.2485Z" fill="white"/>
<path d="M126.968 11.5V27.1097H124.14V11.5H126.968Z" fill="#0F1114"/>
<path d="M111.042 27.1097H108.023L113.519 11.5H117.01L122.513 27.1097H119.494L115.325 14.7012H115.203L111.042 27.1097ZM111.141 20.9893H119.373V23.2606H111.141V20.9893Z" fill="#0F1114"/>
<path d="M100.159 31.4999C99.7834 31.4999 99.4354 31.4694 99.1153 31.4084C98.8002 31.3525 98.5487 31.2864 98.3607 31.2102L99.0009 29.0608C99.4024 29.1777 99.7606 29.2336 100.076 29.2285C100.391 29.2234 100.668 29.1244 100.906 28.9313C101.15 28.7433 101.356 28.4282 101.524 27.9862L101.76 27.3535L97.5146 15.4023H100.441L103.14 24.2438H103.262L105.967 15.4023H108.902L104.214 28.5273C103.996 29.1472 103.706 29.6782 103.345 30.1203C102.985 30.5674 102.543 30.9079 102.019 31.1416C101.501 31.3805 100.881 31.4999 100.159 31.4999Z" fill="#0F1114"/>
<path d="M96.0365 11.5V27.1097H93.2773V11.5H96.0365Z" fill="#0F1114"/>
<path d="M84.0023 23.4359L83.9947 20.1052H84.4368L88.6441 15.4024H91.8681L86.6928 21.1646H86.1212L84.0023 23.4359ZM81.4871 27.1097V11.5H84.2462V27.1097H81.4871ZM88.8346 27.1097L85.0236 21.782L86.8834 19.8384L92.1349 27.1097H88.8346Z" fill="#0F1114"/>
<path d="M74.6359 27.3384C73.4672 27.3384 72.4636 27.0818 71.6252 26.5686C70.7919 26.0554 70.1491 25.3465 69.6969 24.442C69.2497 23.5325 69.0261 22.4858 69.0261 21.3018C69.0261 20.1128 69.2548 19.0635 69.7121 18.154C70.1694 17.2393 70.8147 16.5279 71.6481 16.0198C72.4865 15.5066 73.4773 15.25 74.6206 15.25C75.5708 15.25 76.4118 15.4253 77.1435 15.7759C77.8803 16.1214 78.4672 16.6118 78.9042 17.2469C79.3412 17.877 79.5901 18.6138 79.6511 19.4573H77.0139C76.9072 18.8933 76.6531 18.4233 76.2517 18.0472C75.8554 17.6662 75.3244 17.4756 74.6587 17.4756C74.0947 17.4756 73.5993 17.628 73.1725 17.9329C72.7456 18.2327 72.4128 18.6646 72.174 19.2286C71.9402 19.7927 71.8234 20.4685 71.8234 21.2561C71.8234 22.0538 71.9402 22.7398 72.174 23.314C72.4077 23.8831 72.7355 24.3226 73.1572 24.6326C73.584 24.9375 74.0846 25.0899 74.6587 25.0899C75.0652 25.0899 75.4286 25.0137 75.7487 24.8613C76.0739 24.7037 76.3457 24.4776 76.5642 24.1829C76.7827 23.8882 76.9326 23.53 77.0139 23.1082H79.6511C79.5851 23.9365 79.3412 24.6707 78.9194 25.3109C78.4977 25.9461 77.9235 26.4441 77.1968 26.8048C76.4702 27.1605 75.6166 27.3384 74.6359 27.3384Z" fill="#0F1114"/>
<path d="M62.0065 27.3384C60.8632 27.3384 59.8723 27.0869 59.0339 26.5838C58.1955 26.0808 57.5451 25.377 57.0827 24.4725C56.6254 23.5681 56.3967 22.5112 56.3967 21.3018C56.3967 20.0925 56.6254 19.033 57.0827 18.1235C57.5451 17.2139 58.1955 16.5076 59.0339 16.0046C59.8723 15.5015 60.8632 15.25 62.0065 15.25C63.1498 15.25 64.1406 15.5015 64.979 16.0046C65.8175 16.5076 66.4653 17.2139 66.9226 18.1235C67.385 19.033 67.6162 20.0925 67.6162 21.3018C67.6162 22.5112 67.385 23.5681 66.9226 24.4725C66.4653 25.377 65.8175 26.0808 64.979 26.5838C64.1406 27.0869 63.1498 27.3384 62.0065 27.3384ZM62.0217 25.128C62.6416 25.128 63.1599 24.9578 63.5766 24.6174C63.9933 24.2718 64.3032 23.8094 64.5065 23.2302C64.7148 22.6509 64.819 22.0056 64.819 21.2942C64.819 20.5777 64.7148 19.9299 64.5065 19.3506C64.3032 18.7663 63.9933 18.3013 63.5766 17.9558C63.1599 17.6103 62.6416 17.4375 62.0217 17.4375C61.3866 17.4375 60.8581 17.6103 60.4364 17.9558C60.0197 18.3013 59.7072 18.7663 59.4989 19.3506C59.2956 19.9299 59.194 20.5777 59.194 21.2942C59.194 22.0056 59.2956 22.6509 59.4989 23.2302C59.7072 23.8094 60.0197 24.2718 60.4364 24.6174C60.8581 24.9578 61.3866 25.128 62.0217 25.128Z" fill="#0F1114"/>
<path d="M38 11.5H41.4604L46.0945 22.8109H46.2774L50.9116 11.5H54.3719V27.1097H51.6585V16.3857H51.5137L47.1997 27.064H45.1722L40.8582 16.3628H40.7134V27.1097H38V11.5Z" fill="#0F1114"/>
</svg>
